<svg id="visual" viewBox="0 0 900 900" width="900" height="900" xmlns="http://www.w3.org/2000/svg" xmlns:xlink="http://www.w3.org/1999/xlink" version="1.1"><g stroke-width="1" stroke-linejoin="bevel"><path d="M475 424L411 468L465 494Z" fill="#430f91" stroke="#430f91"></path><path d="M475 424L390 369L411 468Z" fill="#07216a" stroke="#07216a"></path><path d="M465 494L565 435L475 424Z" fill="#07216a" stroke="#07216a"></path><path d="M475 424L531 310L390 369Z" fill="#430f91" stroke="#430f91"></path><path d="M390 369L321 380L411 468Z" fill="#07216a" stroke="#07216a"></path><path d="M280 575L398 601L411 468Z" fill="#001a37" stroke="#001a37"></path><path d="M411 468L398 601L465 494Z" fill="#331989" stroke="#331989"></path><path d="M465 494L636 503L565 435Z" fill="#231e7f" stroke="#231e7f"></path><path d="M321 380L286 469L411 468Z" fill="#331989" stroke="#331989"></path><path d="M565 435L531 310L475 424Z" fill="#001a37" stroke="#001a37"></path><path d="M390 369L368 268L321 380Z" fill="#142075" stroke="#142075"></path><path d="M398 601L473 626L465 494Z" fill="#142075" stroke="#142075"></path><path d="M609 594L636 503L465 494Z" fill="#002052" stroke="#002052"></path><path d="M565 435L576 273L531 310Z" fill="#001529" stroke="#001529"></path><path d="M531 310L368 268L390 369Z" fill="#001a37" stroke="#001a37"></path><path d="M286 469L280 575L411 468Z" fill="#430f91" stroke="#430f91"></path><path d="M398 601L439 705L473 626Z" fill="#430f91" stroke="#430f91"></path><path d="M368 268L281 333L321 380Z" fill="#002052" stroke="#002052"></path><path d="M321 380L218 437L286 469Z" fill="#430f91" stroke="#430f91"></path><path d="M286 469L218 563L280 575Z" fill="#430f91" stroke="#430f91"></path><path d="M473 626L609 594L465 494Z" fill="#001a37" stroke="#001a37"></path><path d="M703 380L576 273L565 435Z" fill="#331989" stroke="#331989"></path><path d="M531 310L407 208L368 268Z" fill="#142075" stroke="#142075"></path><path d="M609 594L667 509L636 503Z" fill="#00101c" stroke="#00101c"></path><path d="M636 503L703 380L565 435Z" fill="#001529" stroke="#001529"></path><path d="M281 333L218 437L321 380Z" fill="#001a37" stroke="#001a37"></path><path d="M273 678L439 705L398 601Z" fill="#142075" stroke="#142075"></path><path d="M473 626L536 694L609 594Z" fill="#001d44" stroke="#001d44"></path><path d="M491 193L407 208L531 310Z" fill="#001529" stroke="#001529"></path><path d="M368 268L316 228L281 333Z" fill="#00101c" stroke="#00101c"></path><path d="M439 705L536 694L473 626Z" fill="#430f91" stroke="#430f91"></path><path d="M191 489L218 563L286 469Z" fill="#331989" stroke="#331989"></path><path d="M280 575L273 678L398 601Z" fill="#331989" stroke="#331989"></path><path d="M218 437L191 489L286 469Z" fill="#231e7f" stroke="#231e7f"></path><path d="M667 509L703 380L636 503Z" fill="#002052" stroke="#002052"></path><path d="M407 208L316 228L368 268Z" fill="#00101c" stroke="#00101c"></path><path d="M281 333L160 334L218 437Z" fill="#331989" stroke="#331989"></path><path d="M218 437L84 406L191 489Z" fill="#00101c" stroke="#00101c"></path><path d="M576 273L491 193L531 310Z" fill="#002052" stroke="#002052"></path><path d="M601 195L491 193L576 273Z" fill="#00215e" stroke="#00215e"></path><path d="M609 594L702 574L667 509Z" fill="#002052" stroke="#002052"></path><path d="M667 509L779 529L703 380Z" fill="#231e7f" stroke="#231e7f"></path><path d="M615 724L702 574L609 594Z" fill="#002052" stroke="#002052"></path><path d="M218 563L273 678L280 575Z" fill="#001529" stroke="#001529"></path><path d="M737 324L601 195L576 273Z" fill="#001a37" stroke="#001a37"></path><path d="M512 796L615 724L536 694Z" fill="#00101c" stroke="#00101c"></path><path d="M536 694L615 724L609 594Z" fill="#002052" stroke="#002052"></path><path d="M225 191L160 334L281 333Z" fill="#430f91" stroke="#430f91"></path><path d="M802 399L737 324L703 380Z" fill="#001529" stroke="#001529"></path><path d="M703 380L737 324L576 273Z" fill="#231e7f" stroke="#231e7f"></path><path d="M273 678L316 761L439 705Z" fill="#001529" stroke="#001529"></path><path d="M439 705L512 796L536 694Z" fill="#231e7f" stroke="#231e7f"></path><path d="M531 87L421 121L491 193Z" fill="#231e7f" stroke="#231e7f"></path><path d="M491 193L421 121L407 208Z" fill="#430f91" stroke="#430f91"></path><path d="M407 208L300 137L316 228Z" fill="#00101c" stroke="#00101c"></path><path d="M316 228L225 191L281 333Z" fill="#001529" stroke="#001529"></path><path d="M805 612L779 529L702 574Z" fill="#001529" stroke="#001529"></path><path d="M702 574L779 529L667 509Z" fill="#002052" stroke="#002052"></path><path d="M366 838L512 796L439 705Z" fill="#002052" stroke="#002052"></path><path d="M300 137L225 191L316 228Z" fill="#00215e" stroke="#00215e"></path><path d="M273 678L225 727L316 761Z" fill="#002052" stroke="#002052"></path><path d="M218 563L225 727L273 678Z" fill="#07216a" stroke="#07216a"></path><path d="M72 605L225 727L218 563Z" fill="#430f91" stroke="#430f91"></path><path d="M65 511L218 563L191 489Z" fill="#430f91" stroke="#430f91"></path><path d="M421 121L300 137L407 208Z" fill="#001529" stroke="#001529"></path><path d="M779 529L802 399L703 380Z" fill="#002052" stroke="#002052"></path><path d="M692 164L634 136L601 195Z" fill="#142075" stroke="#142075"></path><path d="M601 195L531 87L491 193Z" fill="#001d44" stroke="#001d44"></path><path d="M692 164L601 195L737 324Z" fill="#331989" stroke="#331989"></path><path d="M101 274L84 406L160 334Z" fill="#331989" stroke="#331989"></path><path d="M160 334L84 406L218 437Z" fill="#231e7f" stroke="#231e7f"></path><path d="M122 781L232 761L225 727Z" fill="#001529" stroke="#001529"></path><path d="M225 727L232 761L316 761Z" fill="#001529" stroke="#001529"></path><path d="M316 761L366 838L439 705Z" fill="#00215e" stroke="#00215e"></path><path d="M634 136L531 87L601 195Z" fill="#001529" stroke="#001529"></path><path d="M294 0L190 85L300 137Z" fill="#00101c" stroke="#00101c"></path><path d="M802 399L806 327L737 324Z" fill="#231e7f" stroke="#231e7f"></path><path d="M801 210L692 164L737 324Z" fill="#231e7f" stroke="#231e7f"></path><path d="M512 796L631 793L615 724Z" fill="#231e7f" stroke="#231e7f"></path><path d="M779 667L805 612L702 574Z" fill="#001d44" stroke="#001d44"></path><path d="M779 667L702 574L730 731Z" fill="#002052" stroke="#002052"></path><path d="M779 529L900 512L802 399Z" fill="#001529" stroke="#001529"></path><path d="M802 399L900 397L806 327Z" fill="#002052" stroke="#002052"></path><path d="M84 406L65 511L191 489Z" fill="#00101c" stroke="#00101c"></path><path d="M730 731L702 574L615 724Z" fill="#002052" stroke="#002052"></path><path d="M303 900L366 838L316 761Z" fill="#001a37" stroke="#001a37"></path><path d="M512 796L611 900L631 793Z" fill="#001d44" stroke="#001d44"></path><path d="M631 793L730 731L615 724Z" fill="#00215e" stroke="#00215e"></path><path d="M225 191L101 274L160 334Z" fill="#00215e" stroke="#00215e"></path><path d="M84 406L0 524L65 511Z" fill="#001529" stroke="#001529"></path><path d="M69 162L101 274L225 191Z" fill="#142075" stroke="#142075"></path><path d="M65 511L72 605L218 563Z" fill="#00215e" stroke="#00215e"></path><path d="M806 327L801 210L737 324Z" fill="#142075" stroke="#142075"></path><path d="M692 164L732 105L634 136Z" fill="#001d44" stroke="#001d44"></path><path d="M634 136L623 0L531 87Z" fill="#231e7f" stroke="#231e7f"></path><path d="M681 900L729 793L631 793Z" fill="#231e7f" stroke="#231e7f"></path><path d="M631 793L729 793L730 731Z" fill="#331989" stroke="#331989"></path><path d="M730 731L778 769L779 667Z" fill="#07216a" stroke="#07216a"></path><path d="M779 667L900 632L805 612Z" fill="#00101c" stroke="#00101c"></path><path d="M303 900L431 900L366 838Z" fill="#142075" stroke="#142075"></path><path d="M366 838L431 900L512 796Z" fill="#142075" stroke="#142075"></path><path d="M431 900L496 900L512 796Z" fill="#142075" stroke="#142075"></path><path d="M72 605L90 720L225 727Z" fill="#142075" stroke="#142075"></path><path d="M232 761L303 900L316 761Z" fill="#002052" stroke="#002052"></path><path d="M801 210L732 105L692 164Z" fill="#07216a" stroke="#07216a"></path><path d="M369 0L300 137L421 121Z" fill="#00101c" stroke="#00101c"></path><path d="M300 137L190 85L225 191Z" fill="#331989" stroke="#331989"></path><path d="M729 793L778 769L730 731Z" fill="#001529" stroke="#001529"></path><path d="M900 632L900 512L805 612Z" fill="#001529" stroke="#001529"></path><path d="M805 612L900 512L779 529Z" fill="#231e7f" stroke="#231e7f"></path><path d="M806 327L900 316L801 210Z" fill="#331989" stroke="#331989"></path><path d="M900 512L900 397L802 399Z" fill="#231e7f" stroke="#231e7f"></path><path d="M65 511L0 575L72 605Z" fill="#002052" stroke="#002052"></path><path d="M72 605L0 682L90 720Z" fill="#001d44" stroke="#001d44"></path><path d="M0 362L0 524L84 406Z" fill="#231e7f" stroke="#231e7f"></path><path d="M623 0L478 0L531 87Z" fill="#331989" stroke="#331989"></path><path d="M531 87L478 0L421 121Z" fill="#001d44" stroke="#001d44"></path><path d="M0 281L0 362L101 274Z" fill="#00215e" stroke="#00215e"></path><path d="M101 274L0 362L84 406Z" fill="#142075" stroke="#142075"></path><path d="M90 720L122 781L225 727Z" fill="#002052" stroke="#002052"></path><path d="M478 0L369 0L421 121Z" fill="#331989" stroke="#331989"></path><path d="M0 524L0 575L65 511Z" fill="#00215e" stroke="#00215e"></path><path d="M90 720L0 814L122 781Z" fill="#001a37" stroke="#001a37"></path><path d="M174 900L303 900L232 761Z" fill="#001a37" stroke="#001a37"></path><path d="M900 397L900 316L806 327Z" fill="#231e7f" stroke="#231e7f"></path><path d="M801 210L764 62L732 105Z" fill="#002052" stroke="#002052"></path><path d="M836 900L900 811L778 769Z" fill="#430f91" stroke="#430f91"></path><path d="M496 900L611 900L512 796Z" fill="#231e7f" stroke="#231e7f"></path><path d="M115 95L69 162L225 191Z" fill="#430f91" stroke="#430f91"></path><path d="M369 0L294 0L300 137Z" fill="#001529" stroke="#001529"></path><path d="M190 85L115 95L225 191Z" fill="#002052" stroke="#002052"></path><path d="M69 162L0 281L101 274Z" fill="#331989" stroke="#331989"></path><path d="M900 702L900 632L779 667Z" fill="#001d44" stroke="#001d44"></path><path d="M676 0L623 0L634 136Z" fill="#331989" stroke="#331989"></path><path d="M75 0L115 95L190 85Z" fill="#001d44" stroke="#001d44"></path><path d="M611 900L681 900L631 793Z" fill="#001d44" stroke="#001d44"></path><path d="M778 769L900 702L779 667Z" fill="#00101c" stroke="#00101c"></path><path d="M0 575L0 682L72 605Z" fill="#430f91" stroke="#430f91"></path><path d="M900 130L764 62L801 210Z" fill="#001d44" stroke="#001d44"></path><path d="M732 105L676 0L634 136Z" fill="#001d44" stroke="#001d44"></path><path d="M764 62L676 0L732 105Z" fill="#231e7f" stroke="#231e7f"></path><path d="M900 811L900 702L778 769Z" fill="#430f91" stroke="#430f91"></path><path d="M294 0L215 0L190 85Z" fill="#002052" stroke="#002052"></path><path d="M73 900L174 900L122 781Z" fill="#142075" stroke="#142075"></path><path d="M122 781L174 900L232 761Z" fill="#142075" stroke="#142075"></path><path d="M900 316L900 187L801 210Z" fill="#430f91" stroke="#430f91"></path><path d="M69 162L0 165L0 281Z" fill="#430f91" stroke="#430f91"></path><path d="M0 111L0 165L69 162Z" fill="#001529" stroke="#001529"></path><path d="M0 111L69 162L115 95Z" fill="#001a37" stroke="#001a37"></path><path d="M900 187L900 130L801 210Z" fill="#231e7f" stroke="#231e7f"></path><path d="M764 62L825 0L676 0Z" fill="#142075" stroke="#142075"></path><path d="M75 0L0 111L115 95Z" fill="#001a37" stroke="#001a37"></path><path d="M836 900L778 769L729 793Z" fill="#001d44" stroke="#001d44"></path><path d="M0 682L0 814L90 720Z" fill="#001d44" stroke="#001d44"></path><path d="M0 814L73 900L122 781Z" fill="#00101c" stroke="#00101c"></path><path d="M681 900L836 900L729 793Z" fill="#07216a" stroke="#07216a"></path><path d="M215 0L75 0L190 85Z" fill="#002052" stroke="#002052"></path><path d="M900 130L825 0L764 62Z" fill="#331989" stroke="#331989"></path><path d="M0 814L0 900L73 900Z" fill="#331989" stroke="#331989"></path><path d="M836 900L900 900L900 811Z" fill="#430f91" stroke="#430f91"></path><path d="M75 0L0 0L0 111Z" fill="#00101c" stroke="#00101c"></path><path d="M900 130L900 0L825 0Z" fill="#142075" stroke="#142075"></path></g></svg>