<svg width="449" height="173" viewBox="0 36 449 143" fill="none" xmlns="http://www.w3.org/2000/svg">
	<path d="M15 147V40H54.2727V53.3467H33.9988V133.766H54.2727V147H15Z" fill="#cc005c" />
	<path d="M434 40V147H394.727V133.653H415.001V53.3467H394.727V40H434Z" fill="#09c4de" />
	<path
		d="M129.361 42.901V106.321C129.361 117.904 125.881 127.104 118.922 133.92C112.01 140.737 102.215 144.145 89.5355 144.145C83.1482 144.145 77.6188 143.335 72.9475 141.714C68.3238 140.046 63.867 137.758 59.577 134.85L68.5145 120.407C71.8988 122.743 75.0687 124.387 78.024 125.34C80.9793 126.246 84.3398 126.699 88.1055 126.699C93.2058 126.699 97.4482 125.078 100.833 121.837C104.265 118.548 105.981 113.471 105.981 106.607V60.061H75.5215V42.901H129.361ZM222.327 92.379C222.327 102.866 220.825 112.018 217.822 119.835C214.819 127.605 210.362 133.658 204.452 137.996C198.589 142.286 191.319 144.431 182.644 144.431C174.016 144.431 166.747 142.334 160.837 138.139C154.926 133.897 150.469 127.891 147.466 120.121C144.463 112.351 142.962 103.104 142.962 92.379C142.962 81.8923 144.463 72.7642 147.466 64.9945C150.469 57.2248 154.926 51.195 160.837 46.905C166.747 42.5673 174.016 40.3985 182.644 40.3985C191.319 40.3985 198.589 42.4958 204.452 46.6905C210.362 50.8852 214.819 56.8673 217.822 64.637C220.825 72.4067 222.327 81.654 222.327 92.379ZM198.303 92.379C198.303 80.1763 197.087 71.3103 194.656 65.781C192.225 60.2517 188.221 57.487 182.644 57.487C177.067 57.487 173.063 60.2755 170.632 65.8525C168.201 71.3818 166.986 80.224 166.986 92.379C166.986 104.582 168.225 113.448 170.704 118.977C173.182 124.506 177.162 127.271 182.644 127.271C188.364 127.271 192.392 124.482 194.728 118.905C197.111 113.281 198.303 104.439 198.303 92.379ZM275.395 142L249.298 62.2775C249.727 65.0898 250.227 68.7125 250.799 73.1455C251.371 77.5308 251.848 82.4167 252.229 87.803C252.658 93.1893 252.873 98.7902 252.873 104.605V142H232.924V42.901H262.168L287.479 122.194C286.716 117.666 285.93 111.875 285.119 104.82C284.309 97.7653 283.904 89.7812 283.904 80.8675V42.901H303.852V142H275.395ZM393.815 92.379C393.815 102.866 392.313 112.018 389.31 119.835C386.307 127.605 381.851 133.658 375.94 137.996C370.077 142.286 362.808 144.431 354.132 144.431C345.505 144.431 338.236 142.334 332.325 138.139C326.414 133.897 321.957 127.891 318.954 120.121C315.951 112.351 314.45 103.104 314.45 92.379C314.45 81.8923 315.951 72.7642 318.954 64.9945C321.957 57.2248 326.414 51.195 332.325 46.905C338.236 42.5673 345.505 40.3985 354.132 40.3985C362.808 40.3985 370.077 42.4958 375.94 46.6905C381.851 50.8852 386.307 56.8673 389.31 64.637C392.313 72.4067 393.815 81.654 393.815 92.379ZM369.791 92.379C369.791 80.1763 368.575 71.3103 366.144 65.781C363.713 60.2517 359.709 57.487 354.132 57.487C348.555 57.487 344.551 60.2755 342.12 65.8525C339.689 71.3818 338.474 80.224 338.474 92.379C338.474 104.582 339.713 113.448 342.192 118.977C344.671 124.506 348.651 127.271 354.132 127.271C359.852 127.271 363.88 124.482 366.216 118.905C368.599 113.281 369.791 104.439 369.791 92.379Z"
		fill="white" />
</svg>